<?xml version="1.0" encoding="utf-8"?>
<!-- Generator: Adobe Illustrator 19.1.0, SVG Export Plug-In . SVG Version: 6.00 Build 0)  -->
<svg version="1.1" id="Capa_1" xmlns="http://www.w3.org/2000/svg" xmlns:xlink="http://www.w3.org/1999/xlink" x="0px" y="0px"
	 viewBox="383 26 142 100" style="enable-background:new 383 26 142 100;" xml:space="preserve">
<style type="text/css">
	.st0{fill:#000000;}
	.st1{fill:#000000;}
</style>
<g>
	<path class="st0" d="M429.7,73.5c0,0,0.1-0.9,0.1-1.1c0-0.3,0.1-0.6,0.1-0.6c0-0.1,0.1-0.3,0.1-0.3c0-0.1,0.1-0.3,0.1-0.4
		c0-0.1,0.1-0.4,0.1-0.4c0.1-0.4,0.2-0.5,0.2-0.6c0,0,0.2-0.4,0.2-0.4s0.2-0.4,0.2-0.5c0,0,0.2-0.6,0.2-0.6c0,0,0.2-0.3,0.2-0.4
		c0-0.1,0.2-0.3,0.2-0.4c0-0.1,0.2-0.5,0.3-0.5c0,0,0.3-0.6,0.3-0.7c0,0,0.2-0.3,0.2-0.3c0-0.1,0.2-0.4,0.3-0.4c0,0,0.2-0.4,0.2-0.4
		c0,0,0.2-0.3,0.2-0.3c0,0,0.1-0.2,0.1-0.2c0-0.2,0.4-0.7,0.4-0.7c0,0,0.2-0.3,0.2-0.3c0,0,0.3-0.5,0.3-0.6c0.1-0.1,0.2-0.3,0.2-0.3
		s0.2-0.3,0.3-0.4c0-0.1,0.1-0.2,0.2-0.3c0-0.1,0.5-0.7,0.5-0.7c0-0.1,0.1-0.2,0.2-0.2c0,0,0.3-0.3,0.4-0.5c0-0.1,0.2-0.3,0.3-0.3
		c0,0,0.3-0.2,0.3-0.3c0-0.1,0.3-0.4,0.3-0.5c0,0,0.4-0.6,0.4-0.6c0,0,0.6-0.7,0.6-0.7c0-0.1,0.3-0.4,0.4-0.4
		c0.1-0.1,0.5-0.5,0.5-0.5s0.1-0.1,0.2-0.2c0.1-0.1,0.8-0.9,0.8-1c0,0,0.2-0.2,0.3-0.3c0.1,0,0.2-0.2,0.3-0.3
		c0.1-0.1,0.4-0.5,0.4-0.5s0.4-0.4,0.5-0.5c0.1,0,0.9-0.9,1-1c0.1,0,0.7-0.7,0.7-0.7s0.2-0.2,0.2-0.2c0-0.1,0.3-0.4,0.4-0.4
		c0.1,0,0.2-0.2,0.2-0.2s0.1-0.1,0.1-0.1c0,0,0.1-0.1,0.1-0.1s0.5-0.4,0.5-0.4c0,0,0.5-0.4,0.5-0.4l0.4-0.3c0.1-0.1,0.3-0.3,0.4-0.3
		c0.1,0,0.2-0.2,0.2-0.2c0,0,0.3-0.3,0.3-0.3s0.2-0.1,0.3-0.2c0.1-0.1,0.1-0.1,0.2-0.2c0-0.1,0.1-0.1,0.2-0.1c0,0,0.4-0.3,0.4-0.3
		l0.1-0.1c0,0,0.1,0,0.1-0.1c0-0.1,0.2-0.2,0.2-0.2s0.1-0.1,0.1-0.1c0,0,0.5-0.4,0.6-0.4c0,0,0.1-0.1,0.1-0.1c0,0,0.1-0.1,0.2-0.2
		c0.2,0,0.2-0.1,0.2-0.2c0,0,0.1-0.1,0.2-0.1c0.1,0,0.1-0.1,0.1-0.1c0-0.1,0.1,0,0.1,0c0,0,0.3-0.2,0.3-0.2c0,0,0.2-0.1,0.2-0.1
		c0,0,0.1-0.1,0.1-0.1s0.2-0.1,0.2-0.1c0-0.1,0.2-0.1,0.3-0.2c0,0,0.5-0.3,0.5-0.3c0,0,0.2-0.1,0.2-0.1s0.1,0,0.2-0.1
		c0.1-0.1,0.2-0.1,0.3-0.1c0,0,0.4-0.2,0.5-0.3c0,0,0.1-0.1,0.1-0.1c0,0,0,0,0.1-0.1c0.1-0.1,0.5-0.3,0.5-0.3s0.1-0.1,0.1-0.1
		c0,0,0.2-0.1,0.2-0.1c0,0,0.2-0.1,0.3-0.2c0,0,0.3-0.1,0.3-0.2c0.1,0,0.3-0.2,0.3-0.2c0,0,0.2-0.1,0.3-0.1c0.1,0,0.1,0,0.1,0
		c0.1,0,0.1,0,0.1-0.1c0.1-0.1,0.5-0.2,0.5-0.2c0,0,0.2-0.1,0.2-0.1c0,0,0.4-0.2,0.5-0.3c0.1,0,0.3-0.1,0.3-0.2c0,0,0.1,0,0.2,0
		c0.1-0.1,0.7-0.3,0.7-0.4c0,0,0.1-0.1,0.2-0.1c0.1,0,0.4-0.1,0.4-0.2c0,0,0.1,0,0.1,0c0,0,0.5-0.2,0.6-0.3c0.1,0,0.5-0.2,0.6-0.3
		c0,0,0.3-0.2,0.4-0.2c0,0,0.7-0.3,0.7-0.3c0,0,0.3-0.1,0.4-0.1c0,0,0.7-0.3,0.7-0.3c0,0,0.2,0,0.2,0c0,0,0.4-0.2,0.4-0.2
		s0.2-0.1,0.3-0.1c0.1,0,1.2-0.5,1.3-0.5c0,0,0.7-0.2,0.8-0.3c0,0,0.7-0.2,0.7-0.3c0.1,0,0.5-0.1,0.5-0.2c0,0,0.7-0.3,0.7-0.3
		c0,0,0.3,0,0.4-0.1c0.1-0.1,0.6-0.2,0.6-0.2s0.5-0.2,0.6-0.2c0.1,0,0.3-0.2,0.5-0.2c0.2,0,0.3-0.1,0.4-0.1c0.1,0,1.6-0.5,1.8-0.5
		c0.1,0,0.5-0.1,0.5-0.1s0,0,0.2-0.1c0.2-0.1,0.5-0.2,0.5-0.2s0.3-0.1,0.4-0.1c0,0,0.5-0.1,0.5-0.1c0.2-0.1,1.9-0.3,2.2-0.4
		c0.2,0,0.2-0.1,0.4-0.1c0.2,0,0.8,0,1,0c0.2-0.1,0.3,0,0.5,0c0.1,0,0.4,0.1,0.6,0.1c0.3,0,0.8,0,1.1,0c0.3,0,0.3,0.1,0.6,0
		c0.3-0.1,1.1,0.1,1.1,0.1c0.1,0,0.2,0.1,0.3,0.1c0.1,0,0.3,0,0.3,0c0.1,0,0.4,0,0.6,0.2c0.2,0.1,0.3,0.1,0.3,0.1
		c0,0,0.2,0.1,0.4,0.1c0.2,0,0.4,0,0.6,0c0.2,0,0.3,0,0.5,0.1c0.2,0,0.4,0,0.4,0c0.2,0,0.4,0.2,0.5,0.2c0.1,0,0.4,0.1,0.4,0.1
		c0.1,0,0.4,0.1,0.4,0.1c0,0,0.1,0,0.1,0c0.5,0.1,0.8,0.2,0.8,0.3c0,0,0.2,0.1,0.2,0.1c0,0,0.3,0.1,0.5,0.1c0.1,0,0.2,0.1,0.3,0.1
		c0.1,0,0.5,0.2,0.5,0.2c0,0,0.1,0.1,0.2,0.1c0.1,0,0.5,0.2,0.5,0.2c0.1,0,0.3,0.1,0.4,0.2c0,0,0.4,0.2,0.5,0.2c0,0,0.3,0.2,0.3,0.2
		c0,0,0.2,0.1,0.2,0.1c0,0,0.4,0.2,0.4,0.2c0,0,0.2,0.1,0.3,0.1s0.2,0.1,0.2,0.1c0,0,0.1,0.1,0.2,0.1c0.1,0,0.2,0.1,0.2,0.1
		c0,0,0.2,0.1,0.2,0.1s0.2,0.1,0.2,0.1c0,0,0.3,0.2,0.4,0.2c0,0,0.4,0.2,0.4,0.2c0.1,0,0.3,0.2,0.3,0.2c0,0,0.1,0,0.1,0
		c0,0,0.1,0.1,0.1,0.1s0.1,0,0.1,0.1c0,0,0.1,0.1,0.2,0.1c0.1,0,0.2,0.1,0.2,0.1c0.1,0,0.5,0.3,0.5,0.3c0.1,0,0.3,0.1,0.3,0.2
		c0,0,0.2,0.2,0.2,0.2c0.1,0,0.1,0,0.1,0s0.1,0,0.1,0c0,0,0.2,0.1,0.2,0.1c0,0,0,0.1,0.2,0.1c0.1,0.1,0.3,0.2,0.3,0.2
		c0,0,0.1,0.1,0.1,0.1c0.1,0.1,0.6,0.4,0.7,0.5c0.1,0.1,0.3,0.2,0.3,0.2c0.1,0,0.1,0.1,0.3,0.1c0.1,0.1,0.3,0.3,0.4,0.3
		c0.1,0.1,0.5,0.4,0.5,0.4c0.1,0.1,0.6,0.5,0.7,0.5c0.1,0,0.3,0.2,0.3,0.2s0.3,0.2,0.3,0.3c0,0.1,0.2,0.2,0.3,0.3
		c0,0,0.4,0.3,0.4,0.4c0.1,0.1,0.2,0.2,0.2,0.2s0.1,0.1,0.1,0.2c0,0.1,0,0.1,0.1,0.1c0,0,0.2,0.2,0.2,0.3c0,0,0,0.1,0,0.2
		c0.1,0.1,0.2,0.3,0.2,0.5c0,0,0,0,0,0.2c0,0.2,0.2,0.3,0.2,0.3c0,0,0.1,0.2,0.1,0.3c0,0.1,0.1,0.2,0.1,0.4c0.1,0.2,0,0.4,0,0.4
		c0,0.3,0,0.3,0,0.4c0,0.2,0,0.8,0,0.8c0,0.4-0.2,0.7-0.3,0.8c0,0.1-0.1,0.2-0.1,0.2s0,0,0,0.1c0,0.1-0.1,0.2-0.1,0.2
		c0,0,0,0.2,0,0.2c0,0,0,0.3,0,0.4c0,0.1,0,0.2,0,0.3c0,0.1,0,0.1,0,0.2c-0.1,0.1-0.2,0.3-0.2,0.4c0,0-0.1,0.1-0.2,0.3
		c-0.1,0.1-0.1,0.2-0.2,0.4c0,0.2-0.3,0.6-0.3,0.6c-0.1,0-0.2,0.2-0.2,0.2c0,0-0.1,0.2-0.2,0.3c-0.1,0.1-0.3,0.3-0.4,0.4
		c0,0-0.3,0.2-0.3,0.2s-0.2,0.1-0.3,0.2c-0.1,0.1-0.4,0.3-0.5,0.3c0,0-0.2,0-0.3,0.1c-0.1,0.1-0.7-0.1-0.9-0.2c-0.2,0-0.4,0-0.5,0
		c-0.1,0-0.3-0.2-0.4-0.2c-0.1,0-0.5-0.3-0.5-0.3c-0.1,0-0.2,0-0.3-0.1c-0.1-0.1-0.4-0.2-0.5-0.2c0,0-0.6-0.1-0.7-0.1
		c-0.1,0-0.5-0.2-0.5-0.2c-0.1,0-0.4-0.1-0.7-0.1c-0.1,0-0.5,0-0.6,0c-0.1,0-0.3,0-0.5,0c-0.2,0-0.9,0-1,0c-0.1,0-0.5-0.1-0.6-0.1
		c-0.1,0-1.2,0-1.3,0.1c-0.1,0.1-0.6,0.1-1,0.1c-0.4,0-0.5-0.1-0.5,0c-0.1,0-0.4,0-0.6-0.1c-0.2-0.1-0.5,0-0.6,0.1
		c-0.1,0-0.7,0.1-0.9,0.1c-0.1,0-0.5,0-0.6,0c-0.1,0.1-0.6,0.2-0.7,0.2c-0.1,0-0.3,0.1-0.4,0.1c-0.1,0-0.5,0-0.6,0
		c0,0.1-0.3,0.1-0.4,0.1s-0.6,0.1-0.7,0.2c-0.1,0-0.4,0-0.5,0.1c-0.1,0-0.7,0.1-0.8,0.1c-0.1,0-0.2,0.1-0.4,0.1
		c-0.1,0-0.4,0.1-0.7,0.2c-0.2,0.1-0.5,0.1-0.6,0.1c-0.1,0-0.7,0.2-0.9,0.2c-0.2,0-0.6,0.2-1,0.3c-0.5,0.1-0.8,0.3-1.1,0.3
		c-0.2,0.1-0.6,0.2-0.6,0.2c0,0-0.7,0.2-1,0.1c-0.4,0-0.6,0.3-0.6,0.4c-0.1,0.1-0.8,0.3-0.9,0.3c-0.1,0-0.7,0.4-0.8,0.4
		c-0.1,0-0.2,0.1-0.4,0.1c-0.3,0-0.6,0.2-0.7,0.2c-0.1,0.1-0.3,0.2-0.4,0.2c-0.1,0-0.2,0.1-0.6,0.4c-0.4,0.3-0.6,0.4-0.9,0.5
		c-0.3,0.1-0.5,0.3-0.6,0.3c0,0-0.2,0.2-0.3,0.2c0,0-0.3,0.1-0.4,0.1c-0.1,0.1-0.2,0.2-0.3,0.2c-0.1,0-0.4,0.2-0.6,0.2
		c-0.1,0.1-0.3,0.1-0.5,0.4c-0.1,0.3-0.4,0.5-0.7,0.6c-0.4,0.1-0.4,0.3-0.5,0.4c-0.1,0.1-0.2,0.1-0.3,0.2c-0.1,0-0.2,0.1-0.3,0.2
		c-0.1,0.1-0.4,0.1-0.4,0.2c0,0.1-0.3,0.3-0.5,0.4c-0.2,0.2-0.2,0.1-0.6,0.3c-0.4,0.2-0.5,0.4-0.6,0.6c-0.1,0.1-0.3,0.3-0.4,0.3
		c-0.1,0-0.3,0-0.4,0.1c-0.1,0.2-0.2,0.3-0.3,0.4c-0.1,0.1-0.4,0.5-0.5,0.6c-0.1,0-0.5,0.4-0.6,0.5c-0.1,0.1-0.3,0.3-0.3,0.3
		c0,0-0.2,0-0.2,0s-0.3,0.3-0.4,0.3c-0.1,0-0.3,0.4-0.4,0.4c-0.1,0-0.4,0.3-0.5,0.4c-0.2,0.1-0.4,0.3-0.5,0.4
		c-0.2,0.2-0.3,0.2-0.3,0.4c-0.1,0.1-0.2,0.2-0.2,0.2c0,0,0.1,0-0.3,0.2c-0.3,0.2-0.5,0.5-0.6,0.6c-0.1,0.1-0.1,0.2-0.3,0.3
		c-0.1,0.1-0.4,0.2-0.4,0.3c-0.1,0.1-0.4,0.2-0.4,0.4c0,0.1-0.1,0.2-0.2,0.3c-0.1,0.1-0.2,0.3-0.3,0.3l-7,13c0,0-0.3,1-0.3,1.2
		c-0.1,0.2-0.1,0.5-0.1,0.7c0,0.2,0,0.9,0,1.1c0,0.1-0.1,0.3-0.1,0.4c0,0.1,0.1,0.3,0,0.4c0,0.1-0.1,0.4,0,0.5c0,0.1,0.1,1,0.1,1.2
		c0,0.2,0,0.3,0,0.3s0.1,0.2,0.1,0.4c0,0.1,0,0.3,0,0.4c0,0,0.1,0.4,0.1,0.4c0,0.1,0.1,0.5,0.1,0.5c0,0,0.1,0.2,0.1,0.3
		c0,0.1,0.2,0.4,0.2,0.5c0,0.1,0.1,0.2,0.1,0.3c0,0,0.3,0.3,0.3,0.4c0,0,0.4,0.5,0.4,0.7c0.1,0.2,0.2,0.3,0.2,0.4
		c0,0.1,0.1,0.2,0.1,0.2c0,0.1,0.3,0.3,0.3,0.3c0,0,0.2,0.2,0.3,0.3c0.1,0.1,0.1,0,0.3,0.2c0.2,0.2,0.4,0.2,0.5,0.5
		c0.1,0.2,0.4,0.4,0.4,0.4s0.1,0.1,0.2,0.2c0,0.1,0.1,0.1,0.2,0.2c0,0,0.1,0.2,0.2,0.2c0,0,0.2,0.2,0.2,0.2s0.2,0.2,0.2,0.3
		c0.1,0.1,0.1,0.1,0.2,0.1c0,0,0.1,0.1,0.1,0.1s0.1,0,0.2,0.1c0.1,0.1,0.1,0.1,0.2,0.1c0,0,0.2,0.1,0.2,0.1c0.1,0.1,0.2,0.2,0.3,0.3
		c0,0,0.2,0.1,0.2,0.1c0.1,0,0.2,0.2,0.2,0.3c0,0,0.1,0,0.1,0.1c0,0,0.1,0,0.2,0.1c0.1,0,0.3,0.2,0.4,0.3c0,0,0.1,0.1,0.2,0.1
		c0,0,0.1,0.1,0.2,0.1c0,0,0.2,0.1,0.2,0.2c0,0,0.3,0.3,0.3,0.3c0,0,0.1,0.1,0.2,0.1c0.1,0,0.1,0.1,0.2,0.1s0.1,0.1,0.1,0.1
		c0,0,0.4,0.2,0.5,0.2c0.1,0,0.3,0.2,0.3,0.3c0,0.1,0.1,0.1,0.2,0.1c0.1,0,0.3,0,0.4,0.1c0.1,0,0.2,0.1,0.2,0.1
		c0.1,0,0.3,0.1,0.3,0.1s0.2,0,0.2,0.1c0,0,0.1,0.1,0.1,0.1c0,0,0.2,0.1,0.3,0.1c0,0,0.2,0.1,0.2,0.1c0.1,0,0.3,0.1,0.5,0.4
		c0,0,0.2,0.1,0.4,0.1c0.1,0,0.3,0.1,0.3,0.1c0,0,0.3,0.1,0.3,0.1c0.1,0,0.3,0.1,0.3,0.1c0,0,0.3,0,0.5,0.2c0,0,0.2,0,0.2,0
		c0.1,0,0.2,0.1,0.3,0.1c0,0,0.3,0.2,0.3,0.2s0.2,0,0.2,0c0,0,0.2,0.1,0.3,0.1s0.3,0,0.5,0.1c0.1,0.1,0.3,0.1,0.4,0.1
		c0,0,0.3,0.1,0.4,0.1c0.1,0,0.4,0,0.5,0.1c0.1,0.1,0.4,0.2,0.5,0.2c0.1,0,0.4,0,0.5,0.1c0.1,0.1,0.3,0.1,0.3,0.1
		c0,0,0.5,0.1,0.5,0.1c0,0,0.2,0,0.3,0c0.1,0,0.3,0.1,0.4,0.1c0,0,0.4,0.1,0.5,0.1c0,0,0.7,0.1,0.8,0.1c0.1,0,0.3,0.1,0.4,0.1
		c0,0,0.5,0,0.6,0c0.1,0,0.5,0.1,0.6,0.1c0,0,0.9,0,1.1,0c0.2,0,0.6,0,0.6,0c0.1,0,0.4,0,0.5,0c0.1,0,0.2,0,0.3,0c0,0,0.6,0,0.7,0
		c0.1,0,0.3,0,0.3,0c0,0,1,0,1.1,0c0.2,0,0.4,0,0.5,0c0.1,0,0.6,0,0.7,0c0.1,0,0.4,0,0.4,0c0,0,0.8-0.1,0.9-0.1c0.1,0,1-0.1,1-0.1
		s0.4,0,0.6,0c0.1,0,0.7-0.1,0.7-0.1c0.1,0,0.6-0.1,0.6-0.1c0.1,0,0.6,0,0.6-0.1c0.1,0,0.3,0,0.4-0.1c0.1,0,0.5-0.1,0.6-0.1
		c0,0,0.6-0.1,0.7-0.1c0,0,0.5-0.1,0.7-0.2c0.2,0,0.4-0.1,0.6-0.1c0.2,0,0.5-0.1,0.6-0.1c0.1,0,0.8-0.2,0.9-0.2
		c0.1,0,0.8-0.2,0.9-0.2c0.1,0,0.9-0.2,0.9-0.2c0,0,0.6-0.1,0.6-0.2c0.1,0,1.1-0.3,1.2-0.3c0.1,0,0.5-0.1,0.5-0.1
		c0,0,0.6-0.2,0.7-0.2c0.1,0,0.6-0.2,0.7-0.2c0,0,0.7-0.2,0.8-0.2c0.1,0,0.9-0.3,1-0.3c0,0,1.3-0.4,1.4-0.4c0.2,0,0.8-0.3,0.8-0.3
		c0,0,0.8-0.3,0.9-0.3c0.1,0,1.3-0.4,1.4-0.5c0.1,0,0.8-0.2,0.8-0.2c0,0,0.9-0.3,1-0.4c0.1,0,0.3-0.2,0.4-0.2c0.1,0,0.3-0.1,0.3-0.1
		l0.2,0c0,0,0.4-0.2,0.5-0.2c0.1,0,0.3-0.1,0.3-0.1c0.1,0,0.4-0.1,0.4-0.1c0,0,0.2-0.1,0.3-0.1c0.2,0,0.4,0,0.4,0s0,0.1,0,0.1
		c0,0-0.2,0.1-0.2,0.1s-0.2,0.1-0.2,0.2c0,0-0.1,0.1-0.1,0.1c0,0-0.1,0.2-0.1,0.3c0,0,0,0.1,0,0.1s0,0.3,0,0.3c0,0-0.1,0.1-0.2,0.2
		c0,0-0.1,0-0.1,0.1c-0.1,0-0.3,0.2-0.4,0.4c-0.1,0.2-0.4,0.3-0.5,0.3c-0.1,0-0.3,0.2-0.4,0.2c-0.1,0-0.4,0.2-0.5,0.3
		c-0.2,0.1-0.8,0.4-0.8,0.5c-0.1,0.1-0.3,0.3-0.3,0.3c0,0-0.2,0.1-0.2,0.1c0,0-0.4,0.2-0.4,0.2c0,0-0.2,0.1-0.2,0.1
		c0,0-0.1,0.1-0.2,0.1c0,0-0.1,0.1-0.2,0.2c-0.1,0-0.1,0.3-0.1,0.4c0,0.1-0.1,0.3-0.1,0.3c0,0-0.2,0.2-0.3,0.2c0,0-0.1,0.2-0.2,0.2
		c-0.1,0-0.2,0.1-0.2,0.2c-0.1,0.1,0,0.1-0.1,0.1c-0.1,0.1-0.2,0.2-0.3,0.3c0,0-0.1,0-0.2,0.1c-0.1,0.1-0.2,0.2-0.3,0.2
		c-0.1,0.1-0.2,0.1-0.3,0.2c-0.2,0.1-0.4,0.2-0.4,0.3c0,0-0.2,0.1-0.3,0.1c-0.1,0-0.3,0.2-0.5,0.3c-0.2,0.1-0.3,0.2-0.4,0.2
		c-0.1,0.1-0.5,0.3-0.6,0.3c-0.1,0-0.3,0.2-0.4,0.2c-0.1,0.1-0.3,0.1-0.3,0.1c-0.1,0-0.2,0.1-0.3,0.2c-0.1,0.1-0.5,0.3-0.5,0.4
		c-0.1,0.1-0.2,0.1-0.3,0.1c-0.1,0-0.4,0.1-0.4,0.2c0,0,0,0.1-0.2,0.1c-0.2,0-0.3,0.1-0.3,0.2c-0.1,0.1-0.4,0.3-0.4,0.4
		c-0.1,0.1-0.2,0.1-0.3,0.2c-0.1,0-0.2,0.2-0.3,0.2c-0.1,0-0.3,0.1-0.4,0.2c-0.1,0-0.3,0.1-0.4,0.2c-0.1,0.1-0.2,0.2-0.3,0.3
		c-0.1,0.1-0.2,0.1-0.3,0.2c0,0-0.2,0.2-0.3,0.2c0,0-0.2,0.1-0.4,0.2c-0.2,0.1-0.3,0.1-0.5,0.2c-0.1,0-0.2,0.1-0.5,0.2
		c-0.3,0.1-0.1,0.1-0.3,0.1c-0.2,0-0.3,0-0.4,0.1c-0.1,0.1-0.3,0.2-0.4,0.2c-0.3,0-0.2,0.1-0.4,0.2c-0.1,0.1-0.5,0.1-0.6,0.2
		c-0.1,0-0.4,0.1-0.5,0.1c-0.1,0-0.3,0.1-0.3,0.1c0,0-0.2,0.1-0.3,0.1c0,0-0.3,0-0.4,0.1c-0.1,0.1-0.4,0.1-0.5,0.1
		c-0.1,0-0.3,0.1-0.3,0.1c0,0-0.2,0-0.3,0.1c-0.1,0-0.3,0.1-0.5,0.1c-0.2,0-0.4,0.2-0.5,0.2c0,0-0.1,0-0.2,0c-0.2,0-0.2,0.1-0.3,0.1
		c-0.2,0-0.2,0-0.3,0c-0.1,0-0.2,0-0.3,0.1c-0.1,0.1-0.4,0.1-0.6,0c-0.3,0-0.2,0-0.3,0c-0.1,0-0.3,0.1-0.4,0.2c-0.1,0.1-0.4,0-0.4,0
		c0,0-0.2,0.1-0.2,0.1s-0.2-0.1-0.3,0c-0.1,0.1-0.6,0.1-0.7,0.1c-0.1,0-0.4,0.1-0.5,0.1c0,0-0.3,0.1-0.4,0.1c-0.1,0-0.2,0-0.5,0.2
		c-0.3,0.1-0.6,0.1-0.6,0.1c-0.1,0-0.4,0.2-0.4,0.2c-0.1,0-0.2,0.1-0.3,0.1c0,0-0.2,0-0.2,0c0,0-0.6,0-0.6,0c0,0-0.2,0-0.4,0
		c-0.2,0-0.4,0.2-0.5,0.2c0,0-0.2,0.1-0.2,0.1s-0.3,0.1-0.3,0.1c0,0-0.5,0-0.5,0c-0.2,0.2-0.8,0.1-0.8,0.1c0,0-0.1,0.1-0.1,0.1
		s-0.3,0-0.4,0c-0.1,0-0.6,0-0.6,0s-0.2,0-0.3,0c-0.1,0-0.3,0-0.4,0c-0.1,0-0.5,0-0.5,0c-0.1,0-0.7,0-0.8,0c-0.1,0-0.2,0-0.3,0
		c0,0-0.2,0-0.3,0c-0.1,0-0.3,0-0.3,0c-0.1,0-0.2,0-0.2,0c0,0-0.2,0-0.3,0c-0.1,0-0.2,0-0.2,0c-0.1,0-0.3,0-0.4,0
		c-0.1,0-0.2,0-0.3,0.1c-0.1,0.1-0.4,0-0.4,0c0,0-0.3,0-0.3,0c0,0-0.2,0-0.3,0c0,0-0.2,0-0.2,0c0,0-0.2,0-0.2,0
		c-0.1,0.1-0.3,0-0.3,0c0,0-0.1,0-0.2,0c-0.1,0-0.3,0.1-0.3,0.1s-0.2,0-0.3,0c0,0-0.3,0-0.4,0c0,0-0.3,0-0.4,0c-0.1,0-0.2,0-0.3,0
		c0,0-0.3-0.1-0.4-0.1c-0.1,0-0.3,0-0.3,0c0,0-0.2,0-0.2,0c-0.1,0-0.3,0-0.4,0c0,0-0.2,0-0.2,0c0,0-0.2,0-0.2,0c0,0-0.2,0-0.2-0.1
		c0,0-0.2,0-0.2,0c0,0-0.3-0.1-0.3-0.1c-0.1,0-0.6,0-0.7,0c-0.1,0-0.2,0-0.2-0.1c0,0-0.2-0.1-0.2-0.1c0,0-0.2-0.1-0.3-0.1
		c-0.1,0-0.3,0-0.3,0s-0.2,0-0.2,0c0,0-0.1-0.1-0.2-0.1c-0.1,0-0.2,0-0.3-0.1c-0.1-0.1-0.4-0.1-0.4-0.1c0,0-0.2,0-0.2-0.1
		c0,0-0.2-0.1-0.2-0.1c0,0-0.2-0.1-0.3-0.1c-0.1-0.1-0.5-0.1-0.6-0.1c-0.1,0-0.1-0.1-0.1-0.1c0,0-0.5-0.1-0.5-0.2
		c-0.1-0.1-0.3-0.1-0.3-0.1c-0.1,0-0.4,0-0.5-0.1c-0.1-0.1-0.3-0.1-0.4-0.1c-0.1,0-0.5-0.2-0.5-0.2c0,0-0.4-0.1-0.4-0.1
		c-0.1,0-0.3-0.1-0.5-0.2c-0.1-0.1-0.2-0.1-0.3-0.1c-0.1,0-0.2-0.1-0.3-0.1c-0.1,0-0.6-0.3-0.6-0.3c0,0-0.3-0.1-0.4-0.1
		c-0.2-0.1-0.3-0.1-0.3-0.1s-0.2-0.2-0.2-0.2c-0.1,0-0.4-0.2-0.4-0.2c-0.1-0.1-0.4-0.2-0.4-0.2c0,0-0.3-0.2-0.3-0.2
		c0,0-0.4-0.2-0.5-0.3c-0.1,0-0.3-0.1-0.3-0.1c0,0-0.1-0.2-0.2-0.2c-0.1,0-0.3-0.2-0.3-0.2c0,0-0.3-0.2-0.4-0.2c0,0-0.5-0.3-0.5-0.3
		c0,0-0.4-0.3-0.5-0.4c0,0-0.1-0.2-0.2-0.2c-0.1,0-0.2-0.1-0.2-0.1c0,0-0.2-0.2-0.2-0.2c0,0-0.3-0.2-0.3-0.2c0,0-0.3-0.2-0.3-0.2
		c0,0-0.2-0.1-0.2-0.1c0,0-0.3-0.3-0.3-0.3s-0.3-0.2-0.3-0.3c0-0.1-0.3-0.3-0.3-0.3c-0.1-0.1-0.4-0.3-0.4-0.4c0,0-0.2-0.4-0.3-0.4
		c0,0-0.2-0.2-0.2-0.2s-0.3-0.3-0.3-0.3c0,0-0.2-0.2-0.2-0.3c-0.1,0-0.5-0.4-0.5-0.5c0-0.1-0.1-0.2-0.2-0.3c0-0.1-0.3-0.3-0.3-0.3
		l-0.3-0.3l-0.4-0.4l-0.4-0.4l-0.2-0.3c0,0-0.4-0.5-0.5-0.5c-0.1,0-0.6-0.7-0.6-0.7s-0.3-0.4-0.4-0.5c0,0-0.2-0.3-0.3-0.4
		c-0.1-0.1-0.3-0.5-0.3-0.5s0-0.1-0.1-0.1c-0.1,0-0.1-0.2-0.1-0.2l-0.1-0.2c0,0-0.1-0.2-0.2-0.3c0,0-0.3-0.4-0.3-0.4
		c0,0-0.5-0.8-0.5-0.8s-0.2-0.4-0.2-0.4c0,0-0.2-0.4-0.2-0.4l-0.2-0.4c0,0-0.2-0.3-0.2-0.4c-0.1-0.1-0.1-0.3-0.2-0.3
		c0-0.1-0.2-0.5-0.3-0.6c0-0.1-0.1-0.3-0.2-0.4c0,0,0-0.1-0.1-0.2c0-0.1-0.4-0.9-0.4-0.9c0,0-0.1-0.3-0.1-0.3s0-0.1,0-0.1
		c0,0-0.2-0.5-0.3-0.6c0-0.1-0.2-0.6-0.3-0.7c0-0.1-0.1-0.5-0.2-0.5c0,0-0.2-0.5-0.2-0.6c0-0.1-0.2-0.6-0.2-0.6c0,0-0.1-0.5-0.1-0.5
		s-0.1-0.5-0.1-0.5c0,0-0.2-0.9-0.2-0.9s0-0.5-0.1-0.6c0-0.1-0.1-0.3-0.1-0.4c0,0,0-0.5,0-0.5s-0.1-0.7-0.1-0.7c0,0,0-0.2,0-0.3
		c0-0.1,0-0.4,0-0.4s0-0.3,0-0.4c0-0.1,0-0.3,0-0.4c0-0.2-0.1-0.2-0.1-0.3c0-0.1,0-0.3,0-0.4c0-0.1,0-0.5,0-0.5L429.7,73.5
		L429.7,73.5z"/>
	<path class="st1" d="M391.6,78.8c0-3.9,28-7,62.5-7c34.5,0,62.6,3.1,62.6,7c0,3.8-28,7-62.6,7C419.6,85.8,391.6,82.6,391.6,78.8
		L391.6,78.8z"/>
	<path class="st1" d="M501.7,91.2c0-2.7,2.2-4.8,4.8-4.8c2.7,0,4.8,2.2,4.8,4.8c0,2.7-2.2,4.8-4.8,4.8
		C503.8,96,501.7,93.9,501.7,91.2L501.7,91.2z"/>
</g>
</svg>
